<svg width="24" height="22" viewBox="0 0 24 22" fill="none" xmlns="http://www.w3.org/2000/svg">
<path d="M0.5 6.64587H22.5624" stroke="black" stroke-linecap="round"/>
<path d="M3.77225 7.74344C3.75678 7.60311 3.78594 7.46221 3.85793 7.32953C3.92992 7.19684 4.04318 7.07522 4.19067 6.97224C4.33815 6.86927 4.51669 6.78714 4.71516 6.73099C4.91362 6.67484 5.12775 6.64587 5.3442 6.64587H17.7181C17.9344 6.64587 18.1485 6.67483 18.3469 6.73095C18.5453 6.78707 18.7238 6.86915 18.8713 6.97207C19.0188 7.07499 19.132 7.19655 19.2041 7.32917C19.2761 7.46179 19.3054 7.60264 19.29 7.74293L17.9395 20.0348C17.9112 20.2933 17.7333 20.5351 17.4416 20.7117C17.1499 20.8883 16.7661 20.9864 16.3675 20.9864H6.69473C6.29614 20.9864 5.91236 20.8883 5.62068 20.7117C5.329 20.5351 5.15109 20.2933 5.12279 20.0348L3.77225 7.74344Z" stroke="black"/>
<path d="M11.5312 3.57298V1.52433C11.5312 1.25266 11.6973 0.992117 11.9928 0.800018C12.2883 0.60792 12.6892 0.5 13.1071 0.5H15.4709" stroke="black" stroke-linecap="round"/>
<path d="M4.22081 4.42882C4.28215 4.18973 4.47195 3.97253 4.75645 3.81583C5.04095 3.65913 5.40173 3.57309 5.77464 3.573H17.2881C17.6611 3.57297 18.0221 3.65896 18.3067 3.81567C18.5914 3.97238 18.7813 4.18965 18.8427 4.42882L19.4108 6.64598H3.65192L4.22081 4.42882Z" stroke="black"/>
</svg>
