<svg width="23" height="22" viewBox="0 0 23 22" fill="none" xmlns="http://www.w3.org/2000/svg">
<path d="M19.5172 13.7411V17.1555C19.5172 18.1434 19.2072 19.0908 18.6555 19.7894C18.1038 20.4879 17.3554 20.8803 16.5752 20.8803H6.27798C5.49771 20.8803 4.74938 20.4879 4.19764 19.7894C3.6459 19.0908 3.33594 18.1434 3.33594 17.1555V13.7411" stroke="black" stroke-width="0.787943" stroke-linecap="round" stroke-linejoin="round"/>
<path d="M4.28723 12.6995L8.21977 0.932779M11.1716 9.70598L14.1549 0.781302M16.8292 11.3176L19.2426 4.09267M11.4266 9.70598C13.0108 9.68358 14.5817 10.0754 16.0408 10.8569C17.4999 11.6384 18.816 12.7928 19.9066 14.2478C20.1072 14.5219 20.3684 14.7131 20.6561 14.7968C20.9439 14.8804 21.2448 14.8525 21.5198 14.7167C21.7948 14.5809 22.0312 14.3435 22.1982 14.0353C22.3653 13.7272 22.4552 13.3625 22.4563 12.9888V12.9652C22.4593 6.02213 17.5196 0.393921 11.4266 0.393921C5.33362 0.393921 0.393921 6.02213 0.393921 12.9652V12.9888C0.395061 13.3625 0.484988 13.7272 0.65201 14.0353C0.819032 14.3435 1.05542 14.5809 1.33044 14.7167C1.60547 14.8525 1.9064 14.8804 2.19411 14.7968C2.48182 14.7131 2.743 14.5219 2.94369 14.2478C4.03461 12.7923 5.35113 11.6377 6.8108 10.8561C8.27047 10.0746 9.84187 9.68306 11.4266 9.70598Z" stroke="black" stroke-width="0.787943" stroke-linecap="round" stroke-linejoin="round"/>
</svg>
