<svg width="23" height="22" viewBox="0 0 23 22" fill="none" xmlns="http://www.w3.org/2000/svg">
<path d="M19.5172 13.7411V17.1555C19.5172 18.1434 19.2073 19.0908 18.6555 19.7894C18.1038 20.4879 17.3555 20.8803 16.5752 20.8803H6.27802C5.49774 20.8803 4.74941 20.4879 4.19767 19.7894C3.64593 19.0908 3.33597 18.1434 3.33597 17.1555V13.7411" stroke="white" stroke-width="0.787943" stroke-linecap="round" stroke-linejoin="round"/>
<path d="M4.28728 12.6995L8.21981 0.932779M11.1717 9.70598L14.1549 0.781302M16.8292 11.3176L19.2427 4.09267M11.4266 9.70598C13.0109 9.68358 14.5817 10.0754 16.0408 10.8569C17.5 11.6384 18.816 12.7928 19.9066 14.2478C20.1073 14.5219 20.3685 14.7131 20.6562 14.7968C20.9439 14.8804 21.2448 14.8525 21.5199 14.7167C21.7949 14.5809 22.0313 14.3435 22.1983 14.0353C22.3653 13.7272 22.4552 13.3625 22.4564 12.9888V12.9652C22.4593 6.02213 17.5196 0.393921 11.4266 0.393921C5.33366 0.393921 0.393967 6.02213 0.393967 12.9652V12.9888C0.395106 13.3625 0.485034 13.7272 0.652056 14.0353C0.819078 14.3435 1.05547 14.5809 1.33049 14.7167C1.60551 14.8525 1.90644 14.8804 2.19415 14.7968C2.48187 14.7131 2.74305 14.5219 2.94374 14.2478C4.03466 12.7923 5.35117 11.6377 6.81085 10.8561C8.27052 10.0746 9.84192 9.68306 11.4266 9.70598Z" stroke="white" stroke-width="0.787943" stroke-linecap="round" stroke-linejoin="round"/>
</svg>
