<svg width="24" height="22" viewBox="0 0 24 22" fill="none" xmlns="http://www.w3.org/2000/svg">
<path d="M16.3059 1.80923C14.8609 0.953999 13.1862 0.5 11.4763 0.5C9.76647 0.5 8.09172 0.953999 6.64674 1.80923L2.47574 4.58185C-0.158579 6.32758 -0.158579 9.1002 2.47574 10.8459L6.7565 13.6185C9.39082 15.3643 13.6716 15.3643 16.3059 13.6185L20.5867 10.8459C23.221 9.1002 23.221 6.32758 20.5867 4.58185L16.3059 1.80923Z" stroke="white" stroke-linecap="round" stroke-linejoin="round"/>
<path d="M0.5 7.6626V13.824C0.5 14.9536 1.15858 16.0832 2.47574 16.9047L6.7565 19.6773C9.39082 21.423 13.6716 21.423 16.3059 19.6773L20.5867 16.9047C21.9038 16.0832 22.5624 14.9536 22.5624 13.824V7.6626" stroke="white" stroke-linecap="round" stroke-linejoin="round"/>
<path d="M6.75653 8.7921C5.76866 8.17596 5.76866 7.14907 6.75653 6.53293L9.72013 4.68452C10.708 4.06838 12.3545 4.06838 13.3423 4.68452L16.3059 6.53293C17.2938 7.14907 17.2938 8.17596 16.3059 8.7921L13.3423 10.6405C12.3545 11.2567 10.708 11.2567 9.72013 10.6405L6.75653 8.7921Z" stroke="white" stroke-linecap="round" stroke-linejoin="round"/>
<path d="M14.7693 9.71641C12.574 6.63572 9.2811 7.66262 8.18347 9.71641" stroke="white" stroke-linecap="round" stroke-linejoin="round"/>
</svg>
