<svg width="24" height="22" viewBox="0 0 24 22" fill="none" xmlns="http://www.w3.org/2000/svg">
<path d="M11.538 0.5C11.538 0.5 11.0221 1.22898 11.0221 1.78041C11.0221 2.33184 11.538 3.06082 11.538 3.06082C11.538 3.06082 12.0352 3.78126 12.0403 4.32415C12.0454 4.879 11.538 5.62163 11.538 5.62163M15.9267 2.20721C15.9267 2.20721 15.4108 2.93619 15.4108 3.48762C15.4108 4.03905 15.9267 4.76803 15.9267 4.76803C15.9267 4.76803 16.424 5.48847 16.4291 6.03136C16.4342 6.58621 15.9267 7.32884 15.9267 7.32884M7.13569 2.20721C7.13569 2.20721 7.65162 2.93619 7.65162 3.48762C7.65162 4.03905 7.13569 4.76803 7.13569 4.76803C7.13569 4.76803 6.63844 5.48847 6.63335 6.03136C6.62826 6.58621 7.13569 7.32884 7.13569 7.32884M0.5 9.03605C0.5 13.1334 3.73299 17.5141 7.18321 19.1615V20.9865H15.9352V19.1615C19.3837 17.5141 22.5624 13.1334 22.5624 9.03605H0.5Z" stroke="white" stroke-linecap="round" stroke-linejoin="round"/>
</svg>
