<svg xmlns="http://www.w3.org/2000/svg" width="26" height="26" viewBox="0 0 26 26" fill="none">
  <path d="M22.1688 9.54257H3.23343C2.85023 9.543 2.47208 9.63004 2.12725 9.79717C1.78241 9.96431 1.47982 10.2072 1.24208 10.5078C1.00532 10.8075 0.839884 11.1571 0.758294 11.5302C0.676704 11.9033 0.681101 12.2901 0.771154 12.6613L2.80143 20.9744C3.09539 22.0454 3.73362 22.99 4.61765 23.6624C5.50241 24.3357 6.58566 24.7002 7.70004 24.7002H17.6996C18.814 24.7002 19.8973 24.3357 20.782 23.6624C21.6661 22.99 22.3043 22.0454 22.5983 20.9744L24.6285 12.6626C24.7652 12.1022 24.7052 11.5119 24.4587 10.9905C24.2121 10.469 23.794 10.0481 23.2741 9.79814C22.9283 9.63209 22.5499 9.5448 22.1663 9.54257M7.6248 14.5942V19.6472M12.7011 14.5942V19.6472M17.7775 14.5942V19.6472M21.5851 9.54257C21.5846 8.38026 21.3545 7.22948 20.9079 6.15639C20.4613 5.0833 19.807 4.10904 18.9827 3.2896C17.3137 1.62971 15.055 0.698643 12.7011 0.700197C10.3472 0.698643 8.08861 1.62971 6.41961 3.2896C5.59551 4.10914 4.94149 5.08345 4.49511 6.15654C4.04873 7.22963 3.81879 8.38035 3.81852 9.54257" stroke="black" stroke-width="1.4" stroke-linecap="round" stroke-linejoin="round"/>
</svg>