<svg xmlns="http://www.w3.org/2000/svg" width="74" height="33" viewBox="0 0 74 33" fill="none">
  <path d="M45.7458 0.532545C45.9844 0.0588853 46.4078 -0.0100232 46.808 0.0244247C48.2859 0.153605 49.7793 -0.199474 51.2572 0.188065C51.6035 0.274185 51.9884 0.317232 52.3271 0.239724C54.2515 -0.165039 56.0834 0.730612 57.9693 0.739224C59.0469 1.39373 60.3709 1.27317 61.4024 2.14298C61.8796 2.53913 62.5262 2.68554 63.0727 2.98696C64.0888 3.54674 65.0433 4.20124 65.8515 5.1055C66.2518 5.54471 66.729 5.8978 67.1831 6.26812C68.0145 6.94846 68.7919 7.67188 69.2845 8.73115C69.4846 9.17036 69.8772 9.51484 70.2236 9.85071C70.8086 10.4277 71.3629 11.0133 71.5861 11.8831C71.6169 11.9951 71.6553 12.1157 71.7246 12.1845C72.6868 13.2266 72.9639 14.682 73.4258 15.9911C74.0877 17.9029 74.2648 19.8837 73.4873 21.8472C73.1948 22.5878 72.81 23.2165 72.2711 23.7935C70.2236 25.9551 67.6912 26.9627 65.0586 27.7636C63.0804 28.3579 61.1022 28.9607 59.1239 29.5377C58.4311 29.7358 57.7153 29.8391 57.0225 30.0114C56.63 30.1061 56.2066 30.175 55.8602 30.3903C55.1597 30.8381 54.4131 30.9759 53.6434 31.0104C52.1578 31.0793 50.6876 31.3204 49.2173 31.5874C48.055 31.794 46.8773 31.8802 45.7073 31.9921C43.7214 32.1902 41.7277 32.3797 39.7418 32.5433C38.5641 32.638 37.3941 32.6897 36.2164 32.7586C35.2465 32.8189 34.2766 32.8792 33.3067 32.9394C33.0989 32.9567 32.8834 33.0342 32.6987 32.9825C31.0745 32.5605 29.4272 32.8878 27.7954 32.8017C26.6716 32.75 25.5554 32.7414 24.4547 32.3711C24.0313 32.2333 23.531 32.2505 23.0923 32.3452C22.0608 32.5605 21.0756 32.3797 20.0441 32.2505C18.0505 32.0093 16.103 31.6132 14.1633 31.0276C13.3781 30.7951 12.5391 30.7778 11.7232 30.7176C10.5839 30.6314 9.5294 30.3472 8.49025 29.7616C7.21247 29.0382 5.85005 28.5043 4.54148 27.867C3.72556 27.4708 3.04045 26.9197 2.58631 26.0068C2.37078 25.5762 1.97822 25.2489 1.63954 24.9045C1.20078 24.4653 0.823625 23.9141 0.846717 23.2854C0.877507 22.3898 0.477241 21.7697 0 21.098C0.107764 20.7707 0.192406 20.4521 0.315564 20.1506C0.700436 19.2205 1.36244 18.4627 1.53178 17.4034C1.56257 17.1967 1.75501 17.0245 1.88587 16.8436C3.10976 15.1988 4.4953 13.8122 6.35038 13.063C8.12848 12.3482 9.92968 11.7195 11.6154 10.7291C12.1465 10.4191 12.7854 10.2641 13.3858 10.1866C14.9484 9.97988 16.4494 9.32538 18.0351 9.27371C18.2352 9.2651 18.443 9.21341 18.6354 9.12729C20.4135 8.31776 22.3379 8.25749 24.1776 7.78383C24.7934 7.62882 25.3938 7.56853 26.0019 7.78383C26.4637 7.93885 26.9179 7.93024 27.3644 7.74077C28.7422 7.14655 30.1816 7.21543 31.6133 7.30155C32.3908 7.34461 33.1451 7.32739 33.8995 7.11209C34.6153 6.91402 35.3158 6.97431 36.024 7.16377C37.0169 7.42213 38.0176 7.66327 39.0336 7.80967C40.0189 7.94747 40.9195 8.33499 41.7893 8.82587C42.1203 9.01534 42.3666 9.29093 42.4436 9.72153C42.5899 10.5224 42.1126 11.1253 41.4122 10.9616C40.5577 10.7636 39.7264 10.4708 38.872 10.3158C37.1555 10.0057 35.4313 9.76459 33.707 9.48039C32.5755 9.29093 31.4517 9.44595 30.3509 9.66125C28.6806 9.97989 26.9872 10.0574 25.3168 10.3158C23.1385 10.6516 20.9293 10.9272 18.7971 11.5128C16.765 12.0726 14.7098 12.5463 12.6853 13.1749C12.4852 13.2352 12.2543 13.2438 12.1003 13.373C11.1228 14.1739 9.94506 14.4151 8.83663 14.837C6.87379 15.5949 5.17266 16.835 3.68706 18.4627C2.84034 19.3928 2.59402 20.4693 2.87113 21.7611C3.12514 22.9237 3.57927 23.8796 4.47218 24.5944C5.48054 25.404 6.5351 26.1274 7.72051 26.5149C9.73723 27.178 11.7694 27.7809 13.8092 28.3406C14.6482 28.5732 15.5257 28.6679 16.3878 28.7799C19.2359 29.133 22.0839 29.5377 24.9397 29.7875C27.1334 29.9769 29.3349 30.0114 31.5363 30.0114C34.3536 30.0114 37.1709 29.9166 39.9881 29.8305C40.6501 29.8133 41.3044 29.6497 41.9664 29.5549C43.8522 29.3052 45.7304 29.0641 47.6163 28.7971C48.2782 28.7024 48.9325 28.5732 49.5868 28.4354C52.05 27.9187 54.5132 27.3589 56.984 26.8766C58.4927 26.5752 60.0322 26.446 61.4793 25.7829C61.8026 25.6365 62.1798 25.5676 62.5339 25.5417C65.1125 25.3523 67.3294 23.9744 69.6001 22.8118C71.0164 22.0883 71.9632 19.832 71.6861 18.0149C71.3936 16.1289 70.6624 14.4581 69.7156 12.8477C68.7688 11.2372 67.4448 10.066 66.321 8.66225C66.0208 8.29194 65.5975 8.05081 65.2434 7.72355C64.0888 6.67289 62.6724 6.10449 61.4486 5.1744C60.725 4.63184 59.9399 4.2357 59.0701 4.0204C58.2772 3.82232 57.5152 3.45201 56.7377 3.1592C56.4452 3.04724 56.1604 2.90083 55.8602 2.84916C53.5818 2.46162 51.3649 1.72099 49.0326 1.66932C48.1243 1.6521 47.2237 1.37652 46.3231 1.19566C45.9844 1.16983 45.7381 0.963144 45.7458 0.532545Z" fill="#B20B28"/>
</svg>